HIERARCHY
ROOT hip
{
	OFFSET	0.00  0.00  0.00 
	CHANNELS 6 Xposition Yposition Zposition Xrotation Zrotation Yrotation
	JOINT abdomen
	{
		OFFSET	0.000000 0.000000 0.000000
		CHANNELS 3 Xrotation Zrotation Yrotation
		JOINT chest
		{
			OFFSET	0.000000 5.018152 -1.882228
			CHANNELS 3 Xrotation Zrotation Yrotation
			JOINT neckDummy
			{
				OFFSET	0.000000 8.316447 0.784897
				CHANNELS 3 Xrotation Yrotation Zrotation
				JOINT neck
				{
					OFFSET	0.000000 2.280413 -0.392801
					CHANNELS 3 Xrotation Zrotation Yrotation
					JOINT head
					{
						OFFSET	0.000000 3.496879 0.529469
						CHANNELS 3 Xrotation Zrotation Yrotation
						JOINT figureHair
						{
							OFFSET	0.000000 4.699570 0.720622
							CHANNELS 3 Zrotation Yrotation Xrotation
							End Site
							{
								OFFSET 0.000000 -6.419331 0.000000
							}
						}
					}
				}
			}
			JOINT lCollar
			{
				OFFSET	0.599237 8.316447 0.784897
				CHANNELS 3 Yrotation Zrotation Xrotation
				JOINT lShldr
				{
					OFFSET	6.421198 0.010146 -0.332128
					CHANNELS 3 Zrotation Yrotation Xrotation
					JOINT lForeArm
					{
						OFFSET	10.552783 0.025574 0.125508
						CHANNELS 3 Yrotation Zrotation Xrotation
						JOINT lHand
						{
							OFFSET	11.035963 0.319619 0.041520
							CHANNELS 3 Zrotation Yrotation Xrotation
							End Site
							{
								OFFSET 10.353753 0.000000 0.000000
							}
						}
					}
				}
			}
			JOINT rCollar
			{
				OFFSET	-0.599237 8.316447 0.784897
				CHANNELS 3 Yrotation Zrotation Xrotation
				JOINT rShldr
				{
					OFFSET	-6.421198 0.010146 -0.332128
					CHANNELS 3 Zrotation Yrotation Xrotation
					JOINT rForeArm
					{
						OFFSET	-10.552783 0.025574 0.125508
						CHANNELS 3 Yrotation Zrotation Xrotation
						JOINT rHand
						{
							OFFSET	-11.035963 0.319619 0.041520
							CHANNELS 3 Zrotation Yrotation Xrotation
							End Site
							{
								OFFSET -10.353753 0.000000 0.000000
							}
						}
					}
				}
			}
		}
	}
	JOINT lThigh
	{
		OFFSET	4.500466 -6.400484 -1.832696
		CHANNELS 3 Xrotation Zrotation Yrotation
		JOINT lShin
		{
			OFFSET	-1.359117 -18.918689 1.179887
			CHANNELS 3 Xrotation Zrotation Yrotation
			JOINT lFoot
			{
				OFFSET	-0.652380 -17.215186 -0.312137
				CHANNELS 3 Xrotation Yrotation Zrotation
				End Site
				{
					OFFSET 0.000000 0.000000 10.353752
				}
			}
		}
	}
	JOINT rThigh
	{
		OFFSET	-4.500466 -6.400484 -1.832696
		CHANNELS 3 Xrotation Zrotation Yrotation
		JOINT rShin
		{
			OFFSET	1.359117 -18.918689 1.179887
			CHANNELS 3 Xrotation Zrotation Yrotation
			JOINT rFoot
			{
				OFFSET	0.652380 -17.215186 -0.312137
				CHANNELS 3 Xrotation Yrotation Zrotation
				End Site
				{
					OFFSET 0.000000 0.000000 10.353752
				}
			}
		}
	}
}
MOTION
Frames:     10
Frame Time: 0.033333
0.000000 42.014908 0.240040 0.000000 0.000000 0.000000 0.000000 0.000000 0.000000 0.000000 0.000000 0.000000 0.000000 0.000000 0.000000 0.000000 0.000000 0.000000 0.000000 0.000000 0.000000 0.000000 0.000000 0.000000 2.021920 -5.690310 -0.063351 -70.100700 9.978770 15.991600 -22.515600 -9.303740 0.147736 5.969490 -0.173112 0.175734 -2.021920 5.690310 -0.063351 70.100700 -9.978770 15.991600 22.515600 9.303740 0.147736 -5.969490 0.173112 0.175734 -7.548709 4.016634 0.126881 15.890360 -3.336124 -0.813312 -8.628910 1.044381 -0.888102 -7.530616 -4.334307 0.100752 15.830232 3.319340 0.622262 -8.660608 -1.559428 0.936809 
0.000000 42.014908 0.240040 0.000000 0.000000 0.000000 -0.174002 -0.012599 -0.004492 0.245242 0.040229 -0.002301 0.000000 0.000000 0.000000 0.698501 0.043075 -0.015656 -0.542239 -0.134975 0.021229 0.000000 0.000000 0.000000 2.145686 -5.391753 -0.092117 -69.495483 7.819458 15.052681 -25.938894 -9.318226 -0.525034 6.919885 -0.946148 0.080912 -2.127263 5.281593 -0.078669 69.612755 -7.829809 15.250376 25.806536 9.390039 -0.484906 -7.402012 1.068731 -0.471566 -7.548709 4.016634 0.126881 15.890360 -3.336124 -0.813312 -8.628910 1.044381 -0.888102 -7.530616 -4.334307 0.100752 15.830232 3.319340 0.622262 -8.660608 -1.559428 0.936809 
0.000000 42.014908 0.240040 0.000000 0.000000 0.000000 -0.595919 -0.043150 -0.015384 0.839903 0.137775 -0.007881 0.000000 0.000000 0.000000 2.392220 0.147522 -0.053620 -1.857057 -0.462263 0.072705 0.000000 0.000000 0.000000 2.445792 -4.667815 -0.161870 -68.027962 2.583576 12.775997 -34.239670 -9.353352 -2.156360 9.224393 -2.820599 -0.149011 -2.382696 4.290540 -0.115812 68.429581 -2.619027 13.453062 33.786369 9.599298 -2.018931 -10.875580 3.240419 -2.041132 -7.548709 4.016634 0.126881 15.890360 -3.336124 -0.813312 -8.628910 1.044381 -0.888102 -7.530616 -4.334307 0.100752 15.830232 3.319340 0.622262 -8.660608 -1.559428 0.936809 
0.000000 42.014908 0.240040 0.000000 0.000000 0.000000 -1.250201 -0.090526 -0.032274 1.762064 0.289043 -0.016534 0.000000 0.000000 0.000000 5.018730 0.309492 -0.112491 -3.895991 -0.969798 0.152530 0.000000 0.000000 0.000000 2.911177 -3.545179 -0.270038 -65.752228 -5.535889 9.245464 -47.111973 -9.407823 -4.686114 12.798074 -5.727376 -0.505562 -2.778807 2.753680 -0.173411 66.594788 5.461514 10.665905 46.160976 9.923803 -4.397798 -16.262161 6.608132 -4.475114 -7.558911 4.018196 0.126598 15.929922 -3.337829 -0.816177 -8.648877 1.041934 -0.888112 -7.538769 -4.339672 0.099873 15.856524 3.337152 0.625798 -8.679697 -1.563680 0.916682 
0.000000 42.014908 0.240040 0.000000 0.000000 0.000000 -2.047889 -0.148285 -0.052867 2.886345 0.473466 -0.027083 0.000000 0.000000 0.000000 8.220922 0.506962 -0.184266 -6.381820 -1.588576 0.249851 0.000000 0.000000 0.000000 3.478565 -2.176482 -0.401914 -62.977703 -15.434985 4.941107 -62.805645 -9.474234 -7.770343 17.155037 -9.271262 -0.940261 -3.261738 0.879969 -0.243634 64.357849 15.313155 7.267857 61.247860 10.319434 -7.298066 -22.829378 10.713984 -7.442578 -7.515395 4.017018 0.125369 15.870003 -3.338075 -0.812213 -8.638576 1.045806 -0.887904 -7.570412 -4.343251 0.099372 15.916289 3.337669 0.629855 -8.700234 -1.559803 0.916724 
0.000000 42.014908 0.240040 0.000000 0.000000 0.000000 -2.900026 -0.209988 -0.074865 4.087367 0.670477 -0.038352 0.000000 0.000000 0.000000 11.641685 0.717912 -0.260940 -9.037325 -2.249590 0.353816 0.000000 0.000000 0.000000 4.084682 -0.714362 -0.542792 -60.013783 -26.009768 0.342943 -79.570511 -9.545176 -11.065092 21.809395 -13.057044 -1.404631 -3.777632 -1.121636 -0.318651 61.968212 25.837244 3.637865 77.364525 10.742067 -10.396298 -29.844854 15.100091 -10.612594 -7.558910 4.018193 0.126597 15.929924 -3.337816 -0.816175 -8.648877 1.041934 -0.888112 -7.559865 -4.342062 0.099785 15.896415 3.337264 0.628474 -8.690091 -1.561035 0.916758 
0.000000 42.014908 0.240040 0.000000 0.000000 0.000000 -3.717652 -0.269191 -0.095973 5.239749 0.859510 -0.049165 0.000000 0.000000 0.000000 14.923913 0.920318 -0.334508 -11.585287 -2.883835 0.453570 0.000000 0.000000 0.000000 4.666253 0.688544 -0.677964 -57.169907 -36.156288 -4.069001 -95.656441 -9.613246 -14.226410 26.275261 -16.689508 -1.850196 -4.272634 -3.042179 -0.390629 59.675362 35.935127 0.154885 92.828491 11.147587 -13.369058 -36.576218 19.308567 -13.654228 -7.538061 4.015907 0.126430 15.880162 -3.337200 -0.812774 -8.628830 1.045042 -0.888051 -7.496553 -4.334897 0.101534 15.798588 3.327683 0.620684 -8.660361 -1.560805 0.926936 
0.000000 42.014908 0.240040 0.000000 0.000000 0.000000 -4.411809 -0.319454 -0.113893 6.218112 1.019997 -0.058345 0.000000 0.000000 0.000000 17.710493 1.092159 -0.396967 -13.748484 -3.422302 0.538260 0.000000 0.000000 0.000000 5.160002 1.879599 -0.792725 -54.755474 -44.770596 -7.814703 -109.313255 -9.671038 -16.910341 30.066738 -19.773439 -2.228476 -4.692885 -4.672704 -0.451738 57.728748 44.508137 -2.802136 105.957260 11.491869 -15.892904 -42.291088 22.881525 -16.236547 -7.558910 4.018198 0.126597 15.929927 -3.337809 -0.816174 -8.648877 1.041934 -0.888112 -7.549412 -4.340702 0.100188 15.876563 3.336755 0.627082 -8.679949 -1.562265 0.916793 
0.000000 42.014908 0.240040 0.000000 0.000000 0.000000 -4.893540 -0.354336 -0.126329 6.897074 1.131371 -0.064716 0.000000 0.000000 0.000000 19.644321 1.211413 -0.440313 -15.249695 -3.795987 0.597033 0.000000 0.000000 0.000000 5.502652 2.706166 -0.872366 -53.079906 -50.748737 -10.414142 -118.790787 -9.711143 -18.772930 32.697941 -21.913622 -2.490994 -4.984531 -5.804253 -0.494147 56.377834 50.457619 -4.854245 115.068352 11.730792 -17.644398 -46.257084 25.361080 -18.028622 -7.558910 4.018197 0.126598 15.929926 -3.337801 -0.816174 -8.648877 1.041933 -0.888112 -7.538590 -4.339987 0.099894 15.846553 3.337101 0.625126 -8.669679 -1.564201 0.916773 
0.000000 42.014908 0.240040 0.000000 0.000000 0.000000 -5.073885 -0.367394 -0.130984 7.151258 1.173067 -0.067101 0.000000 0.000000 0.000000 20.368288 1.256058 -0.456540 -15.811702 -3.935883 0.619036 0.000000 0.000000 0.000000 5.630930 3.015607 -0.902181 -52.452629 -52.986774 -11.387293 -122.338890 -9.726156 -19.470226 33.682987 -22.714840 -2.589273 -5.093714 -6.227870 -0.510023 55.872089 52.684925 -5.622493 118.479263 11.820237 -18.300106 -47.741833 26.289352 -18.699522 -7.548492 4.017041 0.126857 15.900043 -3.337559 -0.814148 -8.638815 1.043820 -0.888056 -7.538770 -4.339671 0.099873 15.846663 3.336575 0.625064 -8.669679 -1.564201 0.916773 
